<svg version="1.2" xmlns="http://www.w3.org/2000/svg" viewBox="0 0 2700 2500" width="200" height="185">
	<title>logo-svg</title>
	<g id="l70CAuM3XtpFOfkseW9IgEt">
		<g id="Layer">
		</g>
	</g>
	<g id="l7hFHw7OkIZwvfKUQLsnrup">
		<g id="Layer">
			<path id="pHLE11g3x" fill-rule="evenodd" class="s0" d="m1075.3 2385l-56 3c-31 1-58 0-61-3-3-3 2-25 10-48 24-64 23-274-2-347-26-76-69-161-102-199-15-18-37-60-49-94l-23-62-7 55c-4 33-2 66 5 84 16 42 7 41-33-3-51-56-88-134-94-199l-6-55-19 22c-10 13-18 32-18 43 0 38-17 8-31-54-37-169 10-427 80-443 29-6 101-60 101-75 0-5-15-1-32 9-18 11-53 22-78 26-53 7-100 24-100 36 0 4 5 20 10 35 14 36-2 75-39 97-42 25-59 21-33-6 40-42 26-92-38-132-22-14-42-36-46-49-7-27 14-72 46-101 13-11 34-44 47-73 18-41 52-81 139-165 177-171 263-216 424-225 76-3 113 0 177 16 81 20 225 81 236 99 3 5-27 1-66-10-94-25-277-34-348-17-86 20-175 67-237 126l-57 54 60-30c33-16 79-32 103-35l42-7v34c-1 47-25 72-105 109-54 25-65 33-47 37 18 3 22 10 22 43 0 125 71 301 149 371 74 66 136 83 265 72 179-16 336-12 384 10 40 18 43 18 87 2 45-18 75-54 75-92 0-14 2-14 16-3 48 40 37 103-31 169-49 48-76 113-90 217-14 106 24 193 86 193 16 0 29 3 29 7 0 3-27 99-61 212-33 113-65 235-70 270-5 35-12 68-15 73-5 8-110 10-125 2-4-2 22-97 56-211 35-115 65-216 67-226 2-15-8-22-52-36-137-43-199-116-201-233v-63l-15 40c-8 22-14 60-12 85l3 44-75 30c-59 23-91 30-146 30h-72l-7 186c-4 102-10 223-14 270z"/>
		</g>
	</g>
</svg>